<?xml version="1.0" standalone="no"?>
<!DOCTYPE svg PUBLIC "-//W3C//DTD SVG 20010904//EN"
 "http://www.w3.org/TR/2001/REC-SVG-20010904/DTD/svg10.dtd">
<svg version="1.0" xmlns="http://www.w3.org/2000/svg"
 width="1920.000000pt" height="1080.000000pt" viewBox="0 0 1920.000000 1080.000000"
 preserveAspectRatio="xMidYMid meet">

<g transform="translate(0.000000,1080.000000) scale(0.100000,-0.100000)"
fill="#000000" stroke="none">
<path d="M9465 7955 c-11 -2 -69 -9 -130 -15 -571 -60 -1128 -330 -1545 -749
-401 -403 -648 -904 -726 -1471 -24 -170 -24 -490 0 -660 62 -452 226 -850
496 -1208 246 -327 536 -566 905 -747 819 -403 1780 -340 2537 166 417 279
755 685 946 1139 179 424 238 837 191 1320 -43 435 -220 880 -504 1272 -81
112 -307 337 -430 429 -383 286 -836 464 -1290 509 -117 11 -416 21 -450 15z
m430 -1354 c350 -77 642 -287 818 -589 20 -35 37 -65 37 -68 0 -2 -57 -4 -128
-4 l-127 0 -68 100 c-37 55 -72 100 -77 100 -4 0 -25 -51 -46 -112 -20 -62
-38 -114 -39 -116 -2 -2 -56 -19 -120 -37 -65 -19 -119 -36 -122 -38 -2 -3 41
-37 96 -76 l100 -72 3 -130 3 -129 97 70 c54 39 104 70 111 70 8 0 64 -18 125
-40 62 -22 112 -36 112 -32 0 5 -16 55 -35 113 -19 57 -35 110 -35 116 0 18
143 202 154 199 18 -4 79 -174 102 -286 32 -153 33 -347 4 -492 -88 -428 -409
-793 -815 -926 -149 -49 -141 -49 -159 5 l-16 47 47 60 c26 34 76 97 111 141
l62 80 -180 3 -179 2 -98 145 c-54 79 -101 144 -104 145 -3 0 -30 -72 -59
-160 -29 -88 -58 -164 -64 -169 -6 -5 -83 -29 -170 -55 -88 -25 -161 -47 -163
-50 -2 -2 60 -50 139 -107 178 -130 181 -147 18 -92 -360 121 -658 420 -782
783 -80 235 -80 545 0 780 148 435 515 747 976 831 130 24 339 19 471 -10z
m-1546 -1709 c113 -284 299 -519 530 -673 94 -63 99 -68 36 -36 -80 40 -189
121 -268 200 -175 172 -298 394 -358 642 -28 117 -22 125 11 15 15 -52 37
-119 49 -148z m-1148 -52 c162 -681 679 -1336 1309 -1659 56 -29 99 -55 96
-58 -8 -9 -286 140 -395 211 -540 356 -901 876 -1020 1466 -17 86 -37 233 -25
185 3 -11 19 -76 35 -145z m1499 -1750 c8 -5 11 -10 5 -10 -5 0 -17 5 -25 10
-8 5 -10 10 -5 10 6 0 17 -5 25 -10z"/>
<path d="M9155 6288 c-42 -128 -82 -238 -89 -245 -6 -6 -114 -41 -241 -78
-126 -36 -234 -67 -239 -68 -5 -2 40 -39 100 -83 159 -115 235 -171 272 -200
l33 -26 -7 -249 c-4 -137 -4 -249 1 -249 4 0 38 23 77 51 38 27 75 52 82 55 9
3 27 -18 50 -59 139 -249 483 -328 724 -167 102 68 161 147 202 270 29 87 25
245 -9 332 -41 105 -130 204 -245 273 -15 9 -5 26 74 124 49 63 90 118 90 123
0 4 -114 8 -254 8 l-254 0 -73 108 c-40 59 -95 139 -122 177 -27 39 -58 85
-69 103 -11 17 -21 32 -23 32 -1 0 -37 -105 -80 -232z m616 -444 c200 -58 339
-244 339 -453 0 -140 -45 -245 -147 -342 -96 -92 -202 -134 -333 -134 -244 1
-445 184 -475 430 -15 123 46 288 140 380 55 54 149 109 211 124 65 15 205 12
265 -5z"/>
</g>
</svg>
